<svg width="560" height="160" viewBox="0 0 560 160" fill="none" xmlns="http://www.w3.org/2000/svg">
  <defs>
    <linearGradient id="leanBlue" x1="0" y1="0" x2="1" y2="1">
      <stop offset="0%" stop-color="#1E78D7" />
      <stop offset="100%" stop-color="#174A99" />
    </linearGradient>
    <linearGradient id="leanGreen" x1="0" y1="0" x2="1" y2="1">
      <stop offset="0%" stop-color="#71C35A" />
      <stop offset="100%" stop-color="#4F9441" />
    </linearGradient>
  </defs>

  <circle cx="70" cy="78" r="42" stroke="url(#leanBlue)" stroke-width="4" />
  <circle cx="45" cy="58" r="7" fill="#1E78D7" />
  <circle cx="95" cy="52" r="7" fill="#4F9441" />
  <circle cx="102" cy="92" r="7" fill="#1E78D7" />
  <circle cx="58" cy="103" r="7" fill="#4F9441" />
  <circle cx="73" cy="74" r="9" fill="#2E8B8B" />

  <path d="M45 58L73 74L95 52L102 92L58 103L45 58Z" stroke="url(#leanBlue)" stroke-width="3" />
  <path d="M45 58L95 52" stroke="url(#leanGreen)" stroke-width="2.5" />
  <path d="M73 74L102 92" stroke="url(#leanGreen)" stroke-width="2.5" />
  <path d="M73 74L58 103" stroke="url(#leanGreen)" stroke-width="2.5" />

  <path d="M26 112C42 132 87 138 113 105" stroke="url(#leanBlue)" stroke-width="5" stroke-linecap="round" />
  <path d="M102 35C116 36 126 47 128 62" stroke="url(#leanGreen)" stroke-width="5" stroke-linecap="round" />

  <text
    x="150"
    y="82"
    font-family="Arial, Helvetica, sans-serif"
    font-size="42"
    font-style="italic"
    font-weight="700"
  >
    <tspan fill="#174A99">Lean</tspan>
    <tspan fill="#5AA44C">Planner</tspan>
    <tspan fill="#174A99">360</tspan>
  </text>

  <text x="151" y="116" fill="#64748B" font-family="Arial, Helvetica, sans-serif" font-size="20" font-style="italic">
    Lean Construction &amp; Agile Execution
  </text>
</svg>
